# xmcd
#
# Track frame offsets: 
#        150
#        12909
#        28384
#        41002
#        47223
#        63830
#        82993
#        95253
#        106396
#        122251
#        131613
#        150884
#        168934
#        183025
#        196842
#        211786
#        226266
#
# Disc length: 3385 seconds
#
# Revision: 2
# Processed by: cddbd v1.5.2PL0 Copyright (c) Steve Scherf et al.
# Submitted via: ExactAudioCopy v0.99pb5
#
DISCID=c70d3711
DTITLE=Various Artist - Jazz Manouche Volume 5
DYEAR=2009
DGENRE=Jazz manouche
TTITLE0=Romane and Stochelo Rosenberg - Strange Eyes
TTITLE1=Noe Reinhardt - Vette
TTITLE2=Joscho Stephan - Train To Paris
TTITLE3=Yorgui Loefller - Valse De Wasso
TTITLE4=Angelo Debarre and Ludovic Beier - There Will Never Be Another Y
TTITLE4=ou
TTITLE5=Christophe Lartilleux - Montagne Ste Genevieve
TTITLE6=Oscar Aleman - Melancolia
TTITLE7=Marcel Loeffler - Joshua Fit The Battle Of Jericho
TTITLE8=Aurelien Trigo and Chriss Campion - Shine
TTITLE9=Rodolphe Raffalli - Je Me Suis Fait Tout Petit
TTITLE10=David Reinhardt - Love Remembered - Nina's Photo
TTITLE11=Rosenberg Trio - Armando's Rumba (Live)
TTITLE12=Sanseverino - Les Embouteillages
TTITLE13=Marcel Bianchi - Minor Swing
TTITLE14=Django Reinhardt and Le Hot-Club de France - Liebestraum N°3
TTITLE15=Fapy Lafertin - Blue Lou
TTITLE16=Bireli Lagrene - Vague a l'ame
EXTD=YEAR: 2009
EXTT0=
EXTT1=
EXTT2=
EXTT3=
EXTT4=
EXTT5=
EXTT6=
EXTT7=
EXTT8=
EXTT9=
EXTT10=
EXTT11=
EXTT12=
EXTT13=
EXTT14=
EXTT15=
EXTT16=
PLAYORDER=
